<svg width="48" height="48" viewBox="0 0 48 48" fill="none" xmlns="http://www.w3.org/2000/svg">
<circle cx="24" cy="24" r="24" fill="white"/>
<path d="M40.0004 24.3602C40.0004 23.3068 39.908 22.3068 39.7496 21.3335H24.8369V27.3468H33.3754C32.9927 29.3202 31.871 30.9868 30.2081 32.1202V36.1202H35.3022C38.2848 33.3335 40.0004 29.2268 40.0004 24.3602Z" fill="#4285F4"/>
<path d="M24.8362 39.9999C29.1121 39.9999 32.6885 38.5599 35.3016 36.1199L30.2075 32.1199C28.7822 33.0799 26.9742 33.6666 24.8362 33.6666C20.7056 33.6666 17.2083 30.8532 15.9546 27.0532H10.7021V31.1732C13.302 36.3999 18.6468 39.9999 24.8362 39.9999Z" fill="#34A853"/>
<path d="M15.9549 27.0533C15.6249 26.0933 15.4534 25.0667 15.4534 24C15.4534 22.9333 15.6381 21.9067 15.9549 20.9467V16.8267H10.7024C9.62026 18.9867 9 21.4133 9 24C9 26.5867 9.62026 29.0133 10.7024 31.1733L15.9549 27.0533Z" fill="#FBBC05"/>
<path d="M24.8362 14.3333C27.1721 14.3333 29.2573 15.1467 30.9069 16.7333L35.4203 12.1733C32.6885 9.58667 29.1121 8 24.8362 8C18.6468 8 13.302 11.6 10.7021 16.8267L15.9546 20.9467C17.2083 17.1467 20.7056 14.3333 24.8362 14.3333Z" fill="#EA4335"/>
</svg>
