<svg width="153" height="60" viewBox="0 0 153 60" fill="none" xmlns="http://www.w3.org/2000/svg">
<path d="M135.771 47.68C132.529 47.68 129.627 46.976 127.067 45.568C124.55 44.1173 122.566 42.1333 121.115 39.616C119.707 37.0986 119.003 34.1973 119.003 30.912C119.003 27.6266 119.707 24.7253 121.115 22.208C122.523 19.6906 124.486 17.728 127.003 16.32C129.521 14.8693 132.401 14.144 135.643 14.144C138.929 14.144 141.83 14.8693 144.347 16.32C146.865 17.728 148.827 19.6906 150.235 22.208C151.643 24.7253 152.347 27.6266 152.347 30.912C152.347 34.1973 151.643 37.0986 150.235 39.616C148.827 42.1333 146.865 44.1173 144.347 45.568C141.873 46.976 139.014 47.68 135.771 47.68ZM135.771 39.872C137.35 39.872 138.737 39.488 139.931 38.72C141.126 37.952 142.043 36.9067 142.683 35.584C143.366 34.2187 143.707 32.6613 143.707 30.912C143.707 29.1626 143.366 27.6266 142.683 26.304C142.001 24.9386 141.041 23.872 139.803 23.104C138.609 22.336 137.222 21.952 135.643 21.952C134.107 21.952 132.721 22.336 131.483 23.104C130.289 23.872 129.35 24.9386 128.667 26.304C127.985 27.6266 127.643 29.1626 127.643 30.912C127.643 32.6613 127.985 34.2187 128.667 35.584C129.35 36.9067 130.31 37.952 131.547 38.72C132.785 39.488 134.193 39.872 135.771 39.872Z" fill="#07B7FA"/>
<path d="M85.174 59.712V14.912H93.11L93.622 20.8V59.712H85.174ZM103.286 47.68C100.598 47.68 98.3153 46.9973 96.438 45.632C94.6033 44.2667 93.1953 42.3253 92.214 39.808C91.2327 37.2907 90.742 34.3253 90.742 30.912C90.742 27.456 91.2327 24.4906 92.214 22.016C93.1953 19.4986 94.6033 17.5573 96.438 16.192C98.3153 14.8266 100.598 14.144 103.286 14.144C106.23 14.144 108.769 14.8266 110.902 16.192C113.078 17.5573 114.763 19.4986 115.958 22.016C117.153 24.4906 117.75 27.456 117.75 30.912C117.75 34.3253 117.153 37.2907 115.958 39.808C114.763 42.3253 113.078 44.2667 110.902 45.632C108.769 46.9973 106.23 47.68 103.286 47.68ZM101.11 39.936C102.646 39.936 103.99 39.552 105.142 38.784C106.337 38.016 107.275 36.9493 107.958 35.584C108.641 34.2187 108.982 32.6613 108.982 30.912C108.982 29.1626 108.641 27.6053 107.958 26.24C107.318 24.8746 106.401 23.8293 105.206 23.104C104.054 22.336 102.71 21.952 101.174 21.952C99.7233 21.952 98.422 22.336 97.27 23.104C96.118 23.872 95.222 24.9386 94.582 26.304C93.942 27.6266 93.622 29.1626 93.622 30.912C93.622 32.6613 93.942 34.2187 94.582 35.584C95.222 36.9493 96.0967 38.016 97.206 38.784C98.358 39.552 99.6593 39.936 101.11 39.936Z" fill="#07B7FA"/>
<path d="M49.2965 59.712V14.912H57.2325L57.7445 20.8V59.712H49.2965ZM67.4085 47.68C64.7205 47.68 62.4378 46.9973 60.5605 45.632C58.7258 44.2667 57.3178 42.3253 56.3365 39.808C55.3552 37.2907 54.8645 34.3253 54.8645 30.912C54.8645 27.456 55.3552 24.4906 56.3365 22.016C57.3178 19.4986 58.7258 17.5573 60.5605 16.192C62.4378 14.8266 64.7205 14.144 67.4085 14.144C70.3525 14.144 72.8912 14.8266 75.0245 16.192C77.2005 17.5573 78.8858 19.4986 80.0805 22.016C81.2752 24.4906 81.8725 27.456 81.8725 30.912C81.8725 34.3253 81.2752 37.2907 80.0805 39.808C78.8858 42.3253 77.2005 44.2667 75.0245 45.632C72.8912 46.9973 70.3525 47.68 67.4085 47.68ZM65.2325 39.936C66.7685 39.936 68.1125 39.552 69.2645 38.784C70.4592 38.016 71.3978 36.9493 72.0805 35.584C72.7632 34.2187 73.1045 32.6613 73.1045 30.912C73.1045 29.1626 72.7632 27.6053 72.0805 26.24C71.4405 24.8746 70.5232 23.8293 69.3285 23.104C68.1765 22.336 66.8325 21.952 65.2965 21.952C63.8458 21.952 62.5445 22.336 61.3925 23.104C60.2405 23.872 59.3445 24.9386 58.7045 26.304C58.0645 27.6266 57.7445 29.1626 57.7445 30.912C57.7445 32.6613 58.0645 34.2187 58.7045 35.584C59.3445 36.9493 60.2192 38.016 61.3285 38.784C62.4805 39.552 63.7818 39.936 65.2325 39.936Z" fill="#07B7FA"/>
<path d="M35.2985 46.912V14.912H43.7465V46.912H35.2985ZM39.5225 9.728C38.2425 9.728 37.1118 9.25867 36.1305 8.32C35.1492 7.33867 34.6585 6.18667 34.6585 4.864C34.6585 3.54133 35.1492 2.41067 36.1305 1.472C37.1118 0.490667 38.2425 0 39.5225 0C40.8452 0 41.9758 0.490667 42.9145 1.472C43.8958 2.41067 44.3865 3.54133 44.3865 4.864C44.3865 6.18667 43.8958 7.33867 42.9145 8.32C41.9758 9.25867 40.8452 9.728 39.5225 9.728Z" fill="#07B7FA"/>
<path d="M0 46.912V2.112H16.64C19.7973 2.112 22.592 2.752 25.024 4.032C27.456 5.26933 29.3547 7.01867 30.72 9.28C32.0853 11.4987 32.768 14.08 32.768 17.024C32.768 19.9253 32.1067 22.5067 30.784 24.768C29.4613 27.0293 27.648 28.8213 25.344 30.144C23.04 31.424 20.3733 32.064 17.344 32.064H8.768V46.912H0ZM8.768 24H17.152C19.1147 24 20.7147 23.36 21.952 22.08C23.232 20.7573 23.872 19.072 23.872 17.024C23.872 14.976 23.168 13.312 21.76 12.032C20.3947 10.752 18.624 10.112 16.448 10.112H8.768V24Z" fill="#07B7FA"/>
</svg>
